<svg xmlns="http://www.w3.org/2000/svg" viewBox="0 0 100 32" fill="none">
  <!-- Zeni Wordmark Logo -->
  <!-- Z - Blue, italic style -->
  <path d="M0 6h14.5L4.5 22h11v4H0v-3.5L10 6.5H0V6z" fill="#017DE9" transform="skewX(-10)"/>
  <!-- e -->
  <path d="M22 14.5c0-4.5 3.5-8 8-8s7.5 3.5 7.5 8c0 .8-.1 1.5-.2 2H26c.5 2.5 2.5 4 5 4 2 0 3.5-.8 4.5-2l3 2c-1.5 2.5-4.5 4-7.5 4-5 0-9-3.5-9-8.5v-1.5zm4-1h8c-.5-2.5-2-4-4-4s-3.5 1.5-4 4z" fill="#1a1a1a"/>
  <!-- n -->
  <path d="M42 7h4v2.5c1.5-2 3.5-3 6-3 4.5 0 7 3 7 7.5V26h-4V15c0-3-1.5-5-4.5-5-2.5 0-4.5 2-4.5 5v11h-4V7z" fill="#1a1a1a"/>
  <!-- i with dot -->
  <circle cx="66" cy="3" r="2.5" fill="#1a1a1a"/>
  <path d="M64 7h4v19h-4V7z" fill="#1a1a1a"/>
</svg>