<svg xmlns="http://www.w3.org/2000/svg" viewBox="0 0 110 32">
  <!-- Zeni Wordmark - Path Based -->
  
  <!-- Z - Blue, italic -->
  <path d="M2.5 5H20L19 8H9L21 24V27H3L4 24H14.5L2.5 8V5Z" fill="#017DE9" transform="skewX(-10)"/>
  
  <!-- e -->
  <path d="M32 10.5C32 5 36.5 1 42 1C47.5 1 51.5 5 51.5 10.5C51.5 11.5 51.3 12.5 51 13.5H36C36.5 17 39 19 42 19C44.5 19 46.5 17.8 48 16L51 18.5C49 21.5 45.5 23.5 42 23.5C35.5 23.5 32 18.5 32 13V10.5ZM36 10.5H47C46.5 7 44.5 5 42 5C39.5 5 37 7 36 10.5Z" fill="#1a1a1a"/>
  
  <!-- n -->  
  <path d="M56 2H61V5C63 2.5 65.5 1 69 1C74.5 1 78 5 78 11V27H73V12C73 8 71 5.5 67.5 5.5C64 5.5 61 8 61 12V27H56V2Z" fill="#1a1a1a"/>
  
  <!-- i -->
  <circle cx="86" cy="3.5" r="3" fill="#1a1a1a"/>
  <path d="M83 9H89V27H83V9Z" fill="#1a1a1a"/>
</svg>